<svg width="336px" height="259px" viewBox="0 0 336 259" version="1.1" xmlns="http://www.w3.org/2000/svg" xmlns:xlink="http://www.w3.org/1999/xlink">
    <g id="Page-1" stroke="none" stroke-width="1" fill="none" fill-rule="evenodd">
        <g id="logo" transform="translate(4.000000, 2.000000)" fill="#003554" fill-rule="nonzero">
            <g id="igwin" transform="translate(127.563195, 132.934277)">
                <path d="M16.5715447,1.55847917 L10.8673929,47.8801266 L0,47.8801266 L5.70415209,1.55847917 L16.5715447,1.55847917 Z M71.570716,1.55847917 L65.866564,48.2243428 C65.5059549,51.0108678 65.1043735,53.4367471 64.6618078,55.502054 C64.2192421,57.5673606 63.7193142,59.3048149 63.1620094,60.7144684 C62.0146167,63.5993413 60.3099447,66.0743939 58.0479421,68.1397008 C53.6550675,72.0736182 47.9509725,74.0405476 40.9354862,74.0405476 C33.6905214,74.0405476 27.8225158,72.1391826 23.3312933,68.3363955 C21.0365079,66.4350023 19.4301825,64.2713802 18.5122683,61.8454642 C17.5943544,59.6162443 17.1354042,56.4855485 17.1354042,52.4532829 L27.658581,52.4532829 C27.9208422,56.8133748 29.0354353,59.9850483 31.0023943,61.9683985 C32.969353,63.9517484 36.0180932,64.9434089 40.1487066,64.9434089 C44.6071467,64.9434089 48.0000994,63.7550557 50.3276675,61.3783137 C52.6552352,59.001572 54.1304324,55.2234288 54.7533027,50.0437706 L55.5400823,43.7003604 C50.9505116,47.2081032 46.1315349,48.9619487 41.0830073,48.9619487 C34.7887395,48.9619487 29.592768,46.8147174 25.4949373,42.5201907 C21.3971063,38.1273164 19.3482218,32.6526965 19.3482218,26.0961671 C19.3482218,18.7200718 21.7249279,12.6062001 26.4784116,7.75436824 C31.264678,2.86975395 37.2474211,0.427483737 44.4268207,0.427483737 C47.8689984,0.427483737 50.6554818,0.935606884 52.7863538,1.95186895 C55.1139215,2.93534829 57.52341,4.72197591 60.0148911,7.31180485 L60.7033231,1.55847917 L71.570716,1.55847917 Z M59.0805904,23.5391337 C59.0805904,19.3429548 57.8020862,15.9663929 55.2450397,13.4093464 C52.6879935,10.8195175 49.3442137,9.52462245 45.2136003,9.52462245 C40.9190735,9.52462245 37.3458186,11.0981658 34.4937285,14.2452999 C31.6744211,17.3596512 30.2647883,21.2771186 30.2647883,25.9978196 C30.2647883,30.1284334 31.477728,33.5049952 33.903644,36.1276069 C36.3623423,38.6518707 39.6077756,39.9139836 43.6400411,39.9139836 C48.1312636,39.9139836 51.8192559,38.3732223 54.7041288,35.2916534 C57.6217844,32.177302 59.0805904,28.2598346 59.0805904,23.5391337 Z M145.010033,1.55847917 L115.210757,52.7483252 L105.86775,22.8507013 L89.2962048,52.7483252 L72.4787914,1.55847917 L83.9362689,1.55847917 L92.0991072,29.8333703 L108.621478,0.279962273 L117.472748,29.8333703 L132.667429,1.55847917 L145.010033,1.55847917 Z M157.473934,1.55847917 L151.769782,47.8801266 L140.902389,47.8801266 L146.606541,1.55847917 L157.473934,1.55847917 Z M176.772982,1.55847917 L176.281245,5.83659323 C180.575771,2.23050222 184.919407,0.427483737 189.312281,0.427483737 C193.836287,0.427483737 197.458715,1.68959668 200.179674,4.21386015 C202.835069,6.73812396 204.162746,10.1802503 204.162746,14.5403422 C204.162746,16.9006926 203.966053,19.7199581 203.572661,22.9982228 L200.474717,47.8801266 L189.656498,47.8801266 L193.000311,20.637884 C193.131441,19.621622 193.221592,18.7201127 193.270766,17.9333291 C193.31994,17.1465455 193.344527,16.4417293 193.344527,15.8188591 C193.344527,11.6226802 191.082558,9.52462245 186.558553,9.52462245 C183.772028,9.52462245 181.378931,10.3769584 179.379189,12.0816559 C177.740057,13.4257446 176.527117,15.0648521 175.740334,16.9990284 C175.314159,17.9825078 174.953556,19.1872518 174.658512,20.6132969 C174.363468,22.0393423 174.101211,23.6866454 173.871732,25.5552562 L171.118004,47.8801266 L160.250611,47.8801266 L165.954763,1.55847917 L176.772982,1.55847917 Z" id="path-1"></path>
                <path d="M16.5715447,1.55847917 L10.8673929,47.8801266 L0,47.8801266 L5.70415209,1.55847917 L16.5715447,1.55847917 Z M71.570716,1.55847917 L65.866564,48.2243428 C65.5059549,51.0108678 65.1043735,53.4367471 64.6618078,55.502054 C64.2192421,57.5673606 63.7193142,59.3048149 63.1620094,60.7144684 C62.0146167,63.5993413 60.3099447,66.0743939 58.0479421,68.1397008 C53.6550675,72.0736182 47.9509725,74.0405476 40.9354862,74.0405476 C33.6905214,74.0405476 27.8225158,72.1391826 23.3312933,68.3363955 C21.0365079,66.4350023 19.4301825,64.2713802 18.5122683,61.8454642 C17.5943544,59.6162443 17.1354042,56.4855485 17.1354042,52.4532829 L27.658581,52.4532829 C27.9208422,56.8133748 29.0354353,59.9850483 31.0023943,61.9683985 C32.969353,63.9517484 36.0180932,64.9434089 40.1487066,64.9434089 C44.6071467,64.9434089 48.0000994,63.7550557 50.3276675,61.3783137 C52.6552352,59.001572 54.1304324,55.2234288 54.7533027,50.0437706 L55.5400823,43.7003604 C50.9505116,47.2081032 46.1315349,48.9619487 41.0830073,48.9619487 C34.7887395,48.9619487 29.592768,46.8147174 25.4949373,42.5201907 C21.3971063,38.1273164 19.3482218,32.6526965 19.3482218,26.0961671 C19.3482218,18.7200718 21.7249279,12.6062001 26.4784116,7.75436824 C31.264678,2.86975395 37.2474211,0.427483737 44.4268207,0.427483737 C47.8689984,0.427483737 50.6554818,0.935606884 52.7863538,1.95186895 C55.1139215,2.93534829 57.52341,4.72197591 60.0148911,7.31180485 L60.7033231,1.55847917 L71.570716,1.55847917 Z M59.0805904,23.5391337 C59.0805904,19.3429548 57.8020862,15.9663929 55.2450397,13.4093464 C52.6879935,10.8195175 49.3442137,9.52462245 45.2136003,9.52462245 C40.9190735,9.52462245 37.3458186,11.0981658 34.4937285,14.2452999 C31.6744211,17.3596512 30.2647883,21.2771186 30.2647883,25.9978196 C30.2647883,30.1284334 31.477728,33.5049952 33.903644,36.1276069 C36.3623423,38.6518707 39.6077756,39.9139836 43.6400411,39.9139836 C48.1312636,39.9139836 51.8192559,38.3732223 54.7041288,35.2916534 C57.6217844,32.177302 59.0805904,28.2598346 59.0805904,23.5391337 Z M145.010033,1.55847917 L115.210757,52.7483252 L105.86775,22.8507013 L89.2962048,52.7483252 L72.4787914,1.55847917 L83.9362689,1.55847917 L92.0991072,29.8333703 L108.621478,0.279962273 L117.472748,29.8333703 L132.667429,1.55847917 L145.010033,1.55847917 Z M157.473934,1.55847917 L151.769782,47.8801266 L140.902389,47.8801266 L146.606541,1.55847917 L157.473934,1.55847917 Z M176.772982,1.55847917 L176.281245,5.83659323 C180.575771,2.23050222 184.919407,0.427483737 189.312281,0.427483737 C193.836287,0.427483737 197.458715,1.68959668 200.179674,4.21386015 C202.835069,6.73812396 204.162746,10.1802503 204.162746,14.5403422 C204.162746,16.9006926 203.966053,19.7199581 203.572661,22.9982228 L200.474717,47.8801266 L189.656498,47.8801266 L193.000311,20.637884 C193.131441,19.621622 193.221592,18.7201127 193.270766,17.9333291 C193.31994,17.1465455 193.344527,16.4417293 193.344527,15.8188591 C193.344527,11.6226802 191.082558,9.52462245 186.558553,9.52462245 C183.772028,9.52462245 181.378931,10.3769584 179.379189,12.0816559 C177.740057,13.4257446 176.527117,15.0648521 175.740334,16.9990284 C175.314159,17.9825078 174.953556,19.1872518 174.658512,20.6132969 C174.363468,22.0393423 174.101211,23.6866454 173.871732,25.5552562 L171.118004,47.8801266 L160.250611,47.8801266 L165.954763,1.55847917 L176.772982,1.55847917 Z" id="path-1"></path>
            </g>
            <g id="S" stroke="#003554" stroke-width="4">
                <path d="M82.9160768,38.2689585 C79.3765339,32.35909 68.8532417,41.4100344 64.7886754,44.3359312 C53.3147017,52.5963195 28.4402144,68.1784995 31.3285137,85.2659252 C32.1727806,90.2606957 37.5344631,92.7636198 41.6258847,94.5471547 C51.9071426,99.0293225 62.5600121,101.200918 73.1675632,104.527968 C89.9340667,109.787264 107.88053,121.480445 112.719539,139.358091 C115.754536,150.57056 113.083765,164.52161 109.339114,175.233897 C98.9148514,205.057165 74.0581557,228.688247 46.9973023,243.373792 C38.9081173,247.764651 29.3600121,253.105521 19.8058645,251.044368 C18.8152356,250.829525 12.0372659,248.123842 12.193363,249.08728 C12.8697836,253.266653 21.7760445,254.115956 24.8412538,254.119312 C36.6693832,254.129383 51.0282993,247.496097 61.0960566,241.49727 C91.618908,223.30273 123.495272,188.141949 121.011482,150.054601 C119.191693,122.14713 97.926908,106.823434 73.5166835,97.8470131 C64.9444368,94.6948595 55.910277,93.1909565 47.3299737,89.8407442 C44.0240728,88.5500061 39.189092,86.3965379 38.8544065,82.2446916 C38.4418402,77.1290718 44.1982973,71.643183 47.2188595,68.1456016 C57.4756117,56.2687968 71.7019292,49.0399919 82.9160768,38.2689585 Z" id="Shape"></path>
                <path d="M0,215.850354 C6.35936097,234.275179 22.5776785,234.37723 37.9332659,227.10277 C58.8103256,217.212595 82.4575207,192.619753 88.6547422,169.860465 C96.5025642,141.03924 73.1091527,123.206576 47.3326593,117.585739 C31.2798382,114.085137 10.7888251,112.365048 8.80186047,91.3083923 C7.57053994,78.2596845 17.2035753,65.1471951 25.7989848,56.2949808 C43.9284004,37.624093 63.425092,23.4568574 87.5429282,13.5237128 C96.8258362,9.70050961 106.711312,5.91087563 116.821031,4.99577755 C118.722059,4.82390293 125.188841,3.57714055 126.408077,5.58458241 C126.975733,6.51915066 118.879498,9.79551062 117.828109,10.3457108 C111.035369,13.90036 104.725019,18.1364651 98.3579373,22.3937189 C96.2917492,23.775094 92.507822,25.6824995 92.4735814,28.5338726 C92.4017432,34.5719757 101.68633,39.874912 105.346051,44.0700627 C114.349662,54.3912679 123.996125,64.3586532 132.377699,75.1951466 C135.885687,79.7303539 140.703883,85.461634 141.540429,91.3083923 C142.344413,96.9278868 139.151304,102.954912 136.040441,107.421638 C135.223365,108.594884 133.457286,112.105893 131.629776,111.312987 C128.730063,110.055147 125.931058,103.586686 123.923951,101.089132 C118.045974,93.7750617 111.758787,86.7003397 103.054948,82.6874702 C95.7878746,79.3369221 88.1632882,75.7164772 80.2305359,74.2746775 C78.3785197,73.9383134 71.6186775,73.6408898 70.6643033,71.8993165 C69.7206714,70.176542 73.8671466,67.1015976 74.8604611,66.1254034 C79.7686229,61.3018362 89.6128089,56.59509 92.9972619,50.8503822 C94.0130677,49.1262649 91.1311466,48.4934843 89.9656218,48.6703943 C84.8540303,49.4465157 80.2812255,54.2472558 76.5506734,57.469905 C72.557274,60.9194823 61.3176138,68.1687644 62.6023094,74.1746411 C63.5405703,78.5624793 71.5622811,79.7786936 75.1951466,80.6363883 C86.8883276,83.3967887 99.0706127,88.0582164 108.428716,95.8076805 C115.335256,101.526876 121.089363,108.582799 125.829343,116.149646 C126.614528,117.403122 129.272542,123.944764 130.706621,123.882997 C132.459608,123.808138 134.328073,120.757363 135.270698,119.506572 C139.014006,114.538993 141.915733,109.777193 144.283037,104.064712 C145.824538,100.343895 149.269416,96.1876845 149.259345,91.9797776 C149.249945,87.9803357 144.995713,82.891907 143.045674,79.5591507 C136.203923,67.8666411 127.029444,57.2013509 117.734115,47.3846916 C113.299951,42.7017796 108.936283,37.9477007 104.645796,33.1197695 C103.808914,32.1781517 100.637626,29.5372578 100.815879,28.2354419 C101.069327,26.3854398 105.990245,24.1000445 107.421638,23.1006876 C114.048546,18.4735005 120.832222,13.5035713 128.280235,10.2597735 C130.230609,9.41013549 137.794099,8.34129019 138.122742,6.0260182 C138.40036,4.07295854 135.272376,3.20452174 133.941355,2.63149444 C129.563923,0.746580384 123.601351,0.112457027 118.835187,0.0943296259 C105.955668,0.0446471183 95.7875389,3.68624065 83.9493387,8.17948635 C58.5290152,17.8276279 34.7921901,32.8139535 16.9081658,53.7242467 C4.37843883,68.3735369 -4.80141153,90.5591264 7.64842063,108.428716 C15.9336502,120.320963 28.6815774,120.987648 41.6258847,123.024295 C57.5837048,125.53494 78.5544226,133.528789 83.595183,150.725986 C86.599632,160.976696 82.9107058,169.671134 77.8897513,178.588473 C68.9693913,194.429808 56.8619656,206.702394 42.2976057,217.4647 C35.7277654,222.319151 24.870459,228.967879 16.4489383,228.579482 C7.804182,228.181015 6.02501112,219.86893 0,215.850354 Z" id="Shape"></path>
            </g>
        </g>
    </g>
</svg>
